<mxfile host="app.diagrams.net" modified="2022-01-11T09:04:52.548Z" agent="5.0 (Windows NT 10.0; Win64; x64) AppleWebKit/537.36 (KHTML, like Gecko) Chrome/97.0.4692.71 Safari/537.36" etag="2jead0fnwbNeFTrbiQHo" version="16.1.4" type="github">
  <diagram id="C5RBs43oDa-KdzZeNtuy" name="Page-1">
    <mxGraphModel dx="1221" dy="578" grid="1" gridSize="10" guides="1" tooltips="1" connect="1" arrows="1" fold="1" page="1" pageScale="1" pageWidth="827" pageHeight="1169" math="0" shadow="0">
      <root>
        <mxCell id="WIyWlLk6GJQsqaUBKTNV-0" />
        <mxCell id="WIyWlLk6GJQsqaUBKTNV-1" parent="WIyWlLk6GJQsqaUBKTNV-0" />
        <mxCell id="o3l5HjaSurI7txFQJKRH-33" value="Flink" style="rounded=0;whiteSpace=wrap;html=1;verticalAlign=top;" vertex="1" parent="WIyWlLk6GJQsqaUBKTNV-1">
          <mxGeometry x="190" y="500" width="700" height="100" as="geometry" />
        </mxCell>
        <mxCell id="o3l5HjaSurI7txFQJKRH-1" value="Hive" style="rounded=0;whiteSpace=wrap;html=1;verticalAlign=top;" vertex="1" parent="WIyWlLk6GJQsqaUBKTNV-1">
          <mxGeometry x="190" y="190" width="700" height="290" as="geometry" />
        </mxCell>
        <mxCell id="o3l5HjaSurI7txFQJKRH-2" value="Mysql（门店中心）" style="rounded=0;whiteSpace=wrap;html=1;verticalAlign=top;" vertex="1" parent="WIyWlLk6GJQsqaUBKTNV-1">
          <mxGeometry x="14" y="190" width="150" height="160" as="geometry" />
        </mxCell>
        <mxCell id="o3l5HjaSurI7txFQJKRH-4" value="Mysql（Warroom）" style="rounded=0;whiteSpace=wrap;html=1;verticalAlign=top;" vertex="1" parent="WIyWlLk6GJQsqaUBKTNV-1">
          <mxGeometry x="920" y="190" width="220" height="290" as="geometry" />
        </mxCell>
        <mxCell id="o3l5HjaSurI7txFQJKRH-10" style="edgeStyle=orthogonalEdgeStyle;rounded=0;orthogonalLoop=1;jettySize=auto;html=1;entryX=0;entryY=0.5;entryDx=0;entryDy=0;" edge="1" parent="WIyWlLk6GJQsqaUBKTNV-1" source="o3l5HjaSurI7txFQJKRH-5" target="o3l5HjaSurI7txFQJKRH-7">
          <mxGeometry relative="1" as="geometry" />
        </mxCell>
        <mxCell id="o3l5HjaSurI7txFQJKRH-5" value="tm_vehicle" style="rounded=1;whiteSpace=wrap;html=1;" vertex="1" parent="WIyWlLk6GJQsqaUBKTNV-1">
          <mxGeometry x="29" y="220" width="120" height="40" as="geometry" />
        </mxCell>
        <mxCell id="o3l5HjaSurI7txFQJKRH-11" style="edgeStyle=orthogonalEdgeStyle;rounded=0;orthogonalLoop=1;jettySize=auto;html=1;" edge="1" parent="WIyWlLk6GJQsqaUBKTNV-1" source="o3l5HjaSurI7txFQJKRH-6" target="o3l5HjaSurI7txFQJKRH-8">
          <mxGeometry relative="1" as="geometry" />
        </mxCell>
        <mxCell id="o3l5HjaSurI7txFQJKRH-6" value="tm_vehicle_owner" style="rounded=1;whiteSpace=wrap;html=1;" vertex="1" parent="WIyWlLk6GJQsqaUBKTNV-1">
          <mxGeometry x="29" y="280" width="120" height="40" as="geometry" />
        </mxCell>
        <mxCell id="o3l5HjaSurI7txFQJKRH-20" style="edgeStyle=orthogonalEdgeStyle;rounded=0;orthogonalLoop=1;jettySize=auto;html=1;entryX=0;entryY=0.5;entryDx=0;entryDy=0;" edge="1" parent="WIyWlLk6GJQsqaUBKTNV-1" source="o3l5HjaSurI7txFQJKRH-7" target="o3l5HjaSurI7txFQJKRH-17">
          <mxGeometry relative="1" as="geometry" />
        </mxCell>
        <mxCell id="o3l5HjaSurI7txFQJKRH-7" value="ods_imdms_tm_vehicle_dd" style="rounded=1;whiteSpace=wrap;html=1;" vertex="1" parent="WIyWlLk6GJQsqaUBKTNV-1">
          <mxGeometry x="200" y="220" width="190" height="40" as="geometry" />
        </mxCell>
        <mxCell id="o3l5HjaSurI7txFQJKRH-21" style="edgeStyle=orthogonalEdgeStyle;rounded=0;orthogonalLoop=1;jettySize=auto;html=1;entryX=0;entryY=0.5;entryDx=0;entryDy=0;" edge="1" parent="WIyWlLk6GJQsqaUBKTNV-1" source="o3l5HjaSurI7txFQJKRH-8" target="o3l5HjaSurI7txFQJKRH-17">
          <mxGeometry relative="1" as="geometry" />
        </mxCell>
        <mxCell id="o3l5HjaSurI7txFQJKRH-8" value="ods_imdms_tm_vehicle_owner_dd" style="rounded=1;whiteSpace=wrap;html=1;" vertex="1" parent="WIyWlLk6GJQsqaUBKTNV-1">
          <mxGeometry x="200" y="280" width="190" height="40" as="geometry" />
        </mxCell>
        <mxCell id="o3l5HjaSurI7txFQJKRH-25" style="edgeStyle=orthogonalEdgeStyle;rounded=0;orthogonalLoop=1;jettySize=auto;html=1;entryX=0;entryY=0.5;entryDx=0;entryDy=0;" edge="1" parent="WIyWlLk6GJQsqaUBKTNV-1" source="o3l5HjaSurI7txFQJKRH-9" target="o3l5HjaSurI7txFQJKRH-17">
          <mxGeometry relative="1" as="geometry" />
        </mxCell>
        <mxCell id="o3l5HjaSurI7txFQJKRH-9" value="dwd_imdms_mlieage_dd" style="rounded=1;whiteSpace=wrap;html=1;" vertex="1" parent="WIyWlLk6GJQsqaUBKTNV-1">
          <mxGeometry x="414" y="430" width="190" height="40" as="geometry" />
        </mxCell>
        <mxCell id="o3l5HjaSurI7txFQJKRH-26" style="edgeStyle=orthogonalEdgeStyle;rounded=0;orthogonalLoop=1;jettySize=auto;html=1;entryX=0;entryY=0.5;entryDx=0;entryDy=0;" edge="1" parent="WIyWlLk6GJQsqaUBKTNV-1" source="o3l5HjaSurI7txFQJKRH-12" target="o3l5HjaSurI7txFQJKRH-9">
          <mxGeometry relative="1" as="geometry" />
        </mxCell>
        <mxCell id="o3l5HjaSurI7txFQJKRH-12" value="ods_imbs_vbs_data_delta" style="rounded=1;whiteSpace=wrap;html=1;" vertex="1" parent="WIyWlLk6GJQsqaUBKTNV-1">
          <mxGeometry x="200" y="430" width="190" height="40" as="geometry" />
        </mxCell>
        <mxCell id="o3l5HjaSurI7txFQJKRH-24" style="edgeStyle=orthogonalEdgeStyle;rounded=0;orthogonalLoop=1;jettySize=auto;html=1;entryX=0;entryY=0.5;entryDx=0;entryDy=0;" edge="1" parent="WIyWlLk6GJQsqaUBKTNV-1" source="o3l5HjaSurI7txFQJKRH-14" target="o3l5HjaSurI7txFQJKRH-17">
          <mxGeometry relative="1" as="geometry" />
        </mxCell>
        <mxCell id="o3l5HjaSurI7txFQJKRH-14" value="dim_prd_vehicle_info" style="rounded=1;whiteSpace=wrap;html=1;" vertex="1" parent="WIyWlLk6GJQsqaUBKTNV-1">
          <mxGeometry x="414" y="380" width="190" height="40" as="geometry" />
        </mxCell>
        <mxCell id="o3l5HjaSurI7txFQJKRH-22" style="edgeStyle=orthogonalEdgeStyle;rounded=0;orthogonalLoop=1;jettySize=auto;html=1;entryX=0;entryY=0.5;entryDx=0;entryDy=0;" edge="1" parent="WIyWlLk6GJQsqaUBKTNV-1" source="o3l5HjaSurI7txFQJKRH-15" target="o3l5HjaSurI7txFQJKRH-17">
          <mxGeometry relative="1" as="geometry" />
        </mxCell>
        <mxCell id="o3l5HjaSurI7txFQJKRH-15" value="dwd_bos_order_item_df" style="rounded=1;whiteSpace=wrap;html=1;" vertex="1" parent="WIyWlLk6GJQsqaUBKTNV-1">
          <mxGeometry x="414" y="330" width="190" height="40" as="geometry" />
        </mxCell>
        <mxCell id="o3l5HjaSurI7txFQJKRH-23" style="edgeStyle=orthogonalEdgeStyle;rounded=0;orthogonalLoop=1;jettySize=auto;html=1;entryX=0.5;entryY=0;entryDx=0;entryDy=0;" edge="1" parent="WIyWlLk6GJQsqaUBKTNV-1" source="o3l5HjaSurI7txFQJKRH-17" target="o3l5HjaSurI7txFQJKRH-19">
          <mxGeometry relative="1" as="geometry" />
        </mxCell>
        <mxCell id="o3l5HjaSurI7txFQJKRH-50" style="edgeStyle=orthogonalEdgeStyle;rounded=0;orthogonalLoop=1;jettySize=auto;html=1;entryX=0;entryY=0.5;entryDx=0;entryDy=0;" edge="1" parent="WIyWlLk6GJQsqaUBKTNV-1" source="o3l5HjaSurI7txFQJKRH-17" target="o3l5HjaSurI7txFQJKRH-27">
          <mxGeometry relative="1" as="geometry" />
        </mxCell>
        <mxCell id="o3l5HjaSurI7txFQJKRH-17" value="ads_imdms_people_veh_info_dd" style="rounded=1;whiteSpace=wrap;html=1;" vertex="1" parent="WIyWlLk6GJQsqaUBKTNV-1">
          <mxGeometry x="690" y="220" width="190" height="40" as="geometry" />
        </mxCell>
        <mxCell id="o3l5HjaSurI7txFQJKRH-51" style="edgeStyle=orthogonalEdgeStyle;rounded=0;orthogonalLoop=1;jettySize=auto;html=1;entryX=0;entryY=0.5;entryDx=0;entryDy=0;" edge="1" parent="WIyWlLk6GJQsqaUBKTNV-1" source="o3l5HjaSurI7txFQJKRH-19" target="o3l5HjaSurI7txFQJKRH-28">
          <mxGeometry relative="1" as="geometry" />
        </mxCell>
        <mxCell id="o3l5HjaSurI7txFQJKRH-19" value="ads_imdms_veh_info_dd" style="rounded=1;whiteSpace=wrap;html=1;" vertex="1" parent="WIyWlLk6GJQsqaUBKTNV-1">
          <mxGeometry x="690" y="330" width="190" height="40" as="geometry" />
        </mxCell>
        <mxCell id="o3l5HjaSurI7txFQJKRH-27" value="dwr_ods_car_monitor_batch" style="rounded=1;whiteSpace=wrap;html=1;" vertex="1" parent="WIyWlLk6GJQsqaUBKTNV-1">
          <mxGeometry x="930" y="220" width="190" height="40" as="geometry" />
        </mxCell>
        <mxCell id="o3l5HjaSurI7txFQJKRH-28" value="dwr_dwd_car_driving_ogg" style="rounded=1;whiteSpace=wrap;html=1;" vertex="1" parent="WIyWlLk6GJQsqaUBKTNV-1">
          <mxGeometry x="930" y="330" width="190" height="40" as="geometry" />
        </mxCell>
        <mxCell id="o3l5HjaSurI7txFQJKRH-29" value="Kafka（车端埋点）" style="rounded=0;whiteSpace=wrap;html=1;verticalAlign=top;" vertex="1" parent="WIyWlLk6GJQsqaUBKTNV-1">
          <mxGeometry x="20" y="500" width="150" height="100" as="geometry" />
        </mxCell>
        <mxCell id="o3l5HjaSurI7txFQJKRH-37" style="edgeStyle=orthogonalEdgeStyle;rounded=0;orthogonalLoop=1;jettySize=auto;html=1;entryX=0;entryY=0.5;entryDx=0;entryDy=0;" edge="1" parent="WIyWlLk6GJQsqaUBKTNV-1" source="o3l5HjaSurI7txFQJKRH-30" target="o3l5HjaSurI7txFQJKRH-36">
          <mxGeometry relative="1" as="geometry" />
        </mxCell>
        <mxCell id="o3l5HjaSurI7txFQJKRH-30" value="vbs_data" style="ellipse;whiteSpace=wrap;html=1;" vertex="1" parent="WIyWlLk6GJQsqaUBKTNV-1">
          <mxGeometry x="29" y="540" width="120" height="40" as="geometry" />
        </mxCell>
        <mxCell id="o3l5HjaSurI7txFQJKRH-39" style="edgeStyle=orthogonalEdgeStyle;rounded=0;orthogonalLoop=1;jettySize=auto;html=1;entryX=0;entryY=0.5;entryDx=0;entryDy=0;" edge="1" parent="WIyWlLk6GJQsqaUBKTNV-1" source="o3l5HjaSurI7txFQJKRH-36" target="o3l5HjaSurI7txFQJKRH-38">
          <mxGeometry relative="1" as="geometry">
            <Array as="points">
              <mxPoint x="820" y="560" />
              <mxPoint x="820" y="560" />
            </Array>
          </mxGeometry>
        </mxCell>
        <mxCell id="o3l5HjaSurI7txFQJKRH-36" value="vehicleInfoDS" style="ellipse;whiteSpace=wrap;html=1;" vertex="1" parent="WIyWlLk6GJQsqaUBKTNV-1">
          <mxGeometry x="250" y="540" width="120" height="40" as="geometry" />
        </mxCell>
        <mxCell id="o3l5HjaSurI7txFQJKRH-49" style="edgeStyle=orthogonalEdgeStyle;rounded=0;orthogonalLoop=1;jettySize=auto;html=1;entryX=0.5;entryY=1;entryDx=0;entryDy=0;" edge="1" parent="WIyWlLk6GJQsqaUBKTNV-1" source="o3l5HjaSurI7txFQJKRH-38" target="o3l5HjaSurI7txFQJKRH-48">
          <mxGeometry relative="1" as="geometry" />
        </mxCell>
        <mxCell id="o3l5HjaSurI7txFQJKRH-38" value="vehicleWithRegeoDS" style="ellipse;whiteSpace=wrap;html=1;" vertex="1" parent="WIyWlLk6GJQsqaUBKTNV-1">
          <mxGeometry x="725" y="540" width="120" height="40" as="geometry" />
        </mxCell>
        <mxCell id="o3l5HjaSurI7txFQJKRH-43" style="rounded=0;orthogonalLoop=1;jettySize=auto;html=1;" edge="1" parent="WIyWlLk6GJQsqaUBKTNV-1" source="o3l5HjaSurI7txFQJKRH-41">
          <mxGeometry relative="1" as="geometry">
            <mxPoint x="540" y="560" as="targetPoint" />
          </mxGeometry>
        </mxCell>
        <mxCell id="o3l5HjaSurI7txFQJKRH-41" value="高德API" style="ellipse;whiteSpace=wrap;html=1;" vertex="1" parent="WIyWlLk6GJQsqaUBKTNV-1">
          <mxGeometry x="480" y="660" width="120" height="40" as="geometry" />
        </mxCell>
        <mxCell id="o3l5HjaSurI7txFQJKRH-47" value="&lt;span style=&quot;color: rgb(0, 0, 0); font-family: helvetica; font-size: 11px; font-style: normal; font-weight: 400; letter-spacing: normal; text-align: center; text-indent: 0px; text-transform: none; word-spacing: 0px; background-color: rgb(255, 255, 255); display: inline; float: none;&quot;&gt;每个Vin每天调用一次高德逆地理编码获取省市区&lt;/span&gt;" style="text;whiteSpace=wrap;html=1;" vertex="1" parent="WIyWlLk6GJQsqaUBKTNV-1">
          <mxGeometry x="430" y="530" width="280" height="30" as="geometry" />
        </mxCell>
        <mxCell id="o3l5HjaSurI7txFQJKRH-48" value="dwr_ods_car_monitor_streaming" style="rounded=1;whiteSpace=wrap;html=1;" vertex="1" parent="WIyWlLk6GJQsqaUBKTNV-1">
          <mxGeometry x="930" y="410" width="190" height="40" as="geometry" />
        </mxCell>
      </root>
    </mxGraphModel>
  </diagram>
</mxfile>
